# xmcd
#
# Track frame offsets:
#	150
#	8678
#	30062
#	55878
#	77897
#	89029
#	113533
#	128233
#	144558
#	160265
#	175926
#	195723
#	211511
#	229136
#	239961
#	265859
#
# Disc length: 3812 seconds
#
# Revision: 2
# Processed by: cddbd v1.5.2PL0 Copyright (c) Steve Scherf et al.
# Submitted via: audiograbber 1.83.01
#
DISCID=d20ee210
DTITLE=Underground Resistance - Interstellar Fugitives 2 [Destruction Of Order]
DYEAR=2005
DGENRE=Detroit Techno
TTITLE0=Atlantis - Words From Atlantis
TTITLE1=UR-039 Infiltrator - A Delicate Balance
TTITLE2=UR-011 Suburban Knight - Predator's Language
TTITLE3=UR-051 The Unknown Soldier - Babylon's Gifts
TTITLE4=UR-061 Nomadico - Mental Fog
TTITLE5=UR-044 The Deacon - Multi-dimensional Drama
TTITLE6=UR-051 The Unknown Soldier - The Streets
TTITLE7=UR-065 DJ Dijital (Vocals By Mr. Bubble) - Bang
TTITLE8=UR-057 DJ S2 - Nasty
TTITLE9=UR-057 DJ S2 - Post Emanicipation Psychosis
TTITLE10=UR-061 Dex - Angkor Wat
TTITLE11=DJ 3000 - Merchants Of Identity (The Marketplace)
TTITLE12=UR-041 Perception and UR-090 - Song For The Hmong
TTITLE13=UR-39 Infiltrator - The Fugitive From Tibet (Healing)
TTITLE14=UR-040 Mad Mike (Vocals By Atlantis) - Chaos and Order
TTITLE15=UR-040 Mad Mike and The Trinity - Burning Spear
EXTD=Underground Resistance Prod 2006, Mad Mike music BMI
EXTT0=
EXTT1=
EXTT2=
EXTT3=
EXTT4=
EXTT5=
EXTT6=
EXTT7=
EXTT8=
EXTT9=
EXTT10=
EXTT11=
EXTT12=
EXTT13=
EXTT14=
EXTT15=
PLAYORDER=
